<svg width="16" height="16" viewBox="0 0 16 16" fill="none" xmlns="http://www.w3.org/2000/svg">
<circle cx="8" cy="8" r="8" fill="#5BAB0A"/>
<path d="M8 5C7.72385 5 7.50003 5.22382 7.50003 5.49997V7.50003H5.49997C5.22382 7.50003 5 7.72385 5 8C5 8.27615 5.22382 8.49997 5.49997 8.49997H7.50003V10.5C7.50003 10.7762 7.72385 11 8 11C8.27615 11 8.49997 10.7762 8.49997 10.5V8.49997H10.5C10.7762 8.49997 11 8.27615 11 8C11 7.72385 10.7762 7.50003 10.5 7.50003H8.49997V5.49997C8.49997 5.22382 8.27615 5 8 5Z" fill="white"/>
</svg>
