<svg width="17" height="18" viewBox="0 0 17 18" fill="none" xmlns="http://www.w3.org/2000/svg">
<path d="M8.20217 9.6895C10.8695 9.6895 13.0469 7.53023 13.0469 4.84475C13.0469 2.17742 10.8876 0 8.20217 0C5.51669 0 3.35742 2.17742 3.35742 4.84475C3.35742 7.51208 5.51669 9.6895 8.20217 9.6895ZM10.4885 6.76813C10.2707 7.49394 9.32717 8.03829 8.20217 8.03829C7.07717 8.03829 6.13363 7.49394 5.91588 6.76813H10.4885Z" fill="#BBBBBB"/>
<path d="M16.385 14.6971V16.2938C16.385 16.5297 16.2036 16.8019 15.9859 16.8926C15.2963 17.2011 13.6088 17.7817 10.3972 17.9632C10.3609 17.9632 10.3427 17.9632 10.3064 17.9632C10.2701 17.9632 10.2339 17.9632 10.1976 17.9632C10.1431 17.9632 10.0887 17.9632 10.0343 17.9632C10.0343 17.9632 10.0343 17.9632 10.0161 17.9632C9.45361 17.9813 8.83668 17.9995 8.18345 17.9995C3.52015 17.9995 1.23387 17.2374 0.399193 16.8563C0.181451 16.7656 0 16.4934 0 16.2575V14.6608C0 12.2656 1.81451 10.2878 4.13709 10.0156C4.20967 10.0156 4.31854 10.0338 4.37298 10.0882C5.44354 10.8684 6.74999 11.3221 8.18345 11.3221C9.59877 11.3221 10.9234 10.8503 11.9939 10.0882C12.0484 10.0519 12.1572 10.0156 12.2298 10.0156C14.5705 10.3241 16.385 12.3019 16.385 14.6971Z" fill="#BBBBBB"/>
</svg>
