<svg width="19" height="17" viewBox="0 0 19 17" fill="none" xmlns="http://www.w3.org/2000/svg">
<path d="M0.540612 12.9951H14.6903C14.8172 12.9951 14.9398 12.9507 15.0371 12.8698C15.173 12.756 18.2732 10.089 18.4622 4.33203H3.26579C3.07748 9.55781 0.222353 12.0141 0.192682 12.0386C0.0187354 12.1856 -0.045263 12.4256 0.0329933 12.6393C0.110708 12.8523 0.313243 12.9951 0.540612 12.9951Z" fill="#A8A8A8"/>
<path d="M17.9382 1.08288H15.231V0.541441C15.231 0.238234 14.9928 0 14.6896 0C14.3864 0 14.1481 0.238234 14.1481 0.541441V1.08288H11.4048V0.541441C11.4048 0.238234 11.1666 0 10.8634 0C10.5602 0 10.3219 0.238234 10.3219 0.541441V1.08288H7.61473V0.541441C7.61473 0.238234 7.3765 0 7.07329 0C6.77008 0 6.53185 0.238234 6.53185 0.541441V1.08288H3.82464C3.52144 1.08288 3.2832 1.32112 3.2832 1.62432V3.24865H18.4797V1.62432C18.4797 1.32112 18.2414 1.08288 17.9382 1.08288Z" fill="#A8A8A8"/>
<path d="M15.7317 13.6979C15.4377 13.9427 15.0687 14.0759 14.6896 14.0759H3.2832V15.7003C3.2832 15.9995 3.52537 16.2417 3.82464 16.2417H17.9382C18.2375 16.2417 18.4797 15.9995 18.4797 15.7003V9.63086C17.4358 12.1919 15.9791 13.4909 15.7317 13.6979Z" fill="#A8A8A8"/>
</svg>
