<svg width="40" height="40" viewBox="0 0 40 40" fill="none" xmlns="http://www.w3.org/2000/svg">
<circle cx="20" cy="20" r="19" stroke="white" stroke-width="2"/>
<path fill-rule="evenodd" clip-rule="evenodd" d="M14.0175 25.9822C14.1961 26.1608 14.3746 26.25 14.6426 26.25C14.9104 26.25 15.089 26.1607 15.2677 25.9822L19.9998 21.25L24.732 25.9822C24.9107 26.1608 25.1785 26.25 25.3571 26.25C25.5357 26.25 25.8035 26.1607 25.9822 25.9822C26.3393 25.6251 26.3393 25.0893 25.9822 24.7322L21.25 20L25.9822 15.2678C26.3393 14.9107 26.3393 14.375 25.9822 14.0178C25.6251 13.6607 25.0893 13.6607 24.7322 14.0178L20 18.75L15.2678 14.0178C14.9107 13.6607 14.3749 13.6607 14.0178 14.0178C13.6607 14.375 13.6607 14.9107 14.0178 15.2678L18.75 20L14.0178 24.7322C13.6607 25.0895 13.6607 25.6251 14.0178 25.9823L14.0175 25.9822Z" fill="white"/>
</svg>
