<svg width="32" height="32" viewBox="0 0 32 32" fill="none" xmlns="http://www.w3.org/2000/svg">
<circle cx="16" cy="16" r="16" fill="#F0F0F0"/>
<path fill-rule="evenodd" clip-rule="evenodd" d="M11.214 20.7858C11.3569 20.9287 11.4997 21 11.7141 21C11.9283 21 12.0712 20.9285 12.2141 20.7858L15.9999 17L19.7856 20.7858C19.9285 20.9287 20.1428 21 20.2857 21C20.4286 21 20.6428 20.9285 20.7857 20.7858C21.0714 20.5001 21.0714 20.0715 20.7857 19.7858L17 16L20.7857 12.2143C21.0714 11.9286 21.0714 11.5 20.7857 11.2143C20.5 10.9286 20.0714 10.9286 19.7857 11.2143L16 15L12.2143 11.2143C11.9286 10.9286 11.5 10.9286 11.2143 11.2143C10.9286 11.5 10.9286 11.9286 11.2143 12.2143L15 16L11.2143 19.7858C10.9286 20.0716 10.9286 20.5001 11.2143 20.7859L11.214 20.7858Z" fill="black"/>
</svg>
