<svg width="18" height="20" viewBox="0 0 18 20" fill="none" xmlns="http://www.w3.org/2000/svg">
<path fill-rule="evenodd" clip-rule="evenodd" d="M3.99997 1.9999C3.99997 0.895334 4.89547 0 6.00003 0H16C17.1045 0 18 0.895334 18 1.9999V14C18 15.1045 17.1045 16 16 16H14.0001V18.0001C14.0001 19.1047 13.1045 20 12 20H2.00007C0.895505 20 0 19.1047 0 18.0001V6.00003C0 4.89547 0.895505 3.99997 2.00007 3.99997H3.99997V1.9999ZM6.00003 1.9999H16V14H6.00003V1.9999ZM3.99997 6.00003H2.00007V18.0001H12V16H5.99995C4.89539 16 3.99988 15.1045 3.99988 14L3.99997 6.00003Z" fill="#A8A8A8"/>
</svg>
