<svg width="23" height="16" viewBox="0 0 23 16" fill="none" xmlns="http://www.w3.org/2000/svg">
<path fill-rule="evenodd" clip-rule="evenodd" d="M0 1.1428C0 0.511596 0.509294 0 1.14128 0H21.7158C22.3462 0 22.8571 0.507188 22.8571 1.1428C22.8571 1.77401 22.3478 2.2856 21.7158 2.2856H1.14128C0.510861 2.2856 0 1.77841 0 1.1428ZM0 8C0 7.36879 0.509294 6.8572 1.14128 6.8572H21.7158C22.3462 6.8572 22.8571 7.36439 22.8571 8C22.8571 8.6312 22.3478 9.1428 21.7158 9.1428H1.14128C0.510861 9.1428 0 8.63561 0 8ZM0 14.8572C0 14.226 0.509294 13.7144 1.14128 13.7144H21.7158C22.3462 13.7144 22.8571 14.2216 22.8571 14.8572C22.8571 15.4884 22.3478 16 21.7158 16H1.14128C0.510861 16 0 15.4928 0 14.8572Z" fill="black"/>
</svg>
