<svg width="48" height="48" viewBox="0 0 48 48" fill="none" xmlns="http://www.w3.org/2000/svg">
<path fill-rule="evenodd" clip-rule="evenodd" d="M20.1171 34.3226C20.231 34.2653 20.3378 34.189 20.4325 34.0939L37.4014 17.125C37.8819 16.6446 37.8835 15.8648 37.4034 15.3846L36.5312 14.5124C36.0527 14.0339 35.272 14.0329 34.7908 14.514L19.561 29.7438L12.8188 23.0015C12.3353 22.518 11.5578 22.519 11.0777 22.9991L10.2055 23.8714C9.72704 24.3498 9.72637 25.1309 10.2078 25.6124L18.6882 34.093C19.077 34.4818 19.6562 34.5571 20.1176 34.3221L20.1171 34.3226ZM0 24C0 10.7451 10.7426 0 24 0C37.2549 0 48 10.7426 48 24C48 37.2549 37.2574 48 24 48C10.7451 48 0 37.2574 0 24Z" fill="#87C24C"/>
</svg>
