<svg width="20" height="20" viewBox="0 0 20 20" fill="none" xmlns="http://www.w3.org/2000/svg">
<path d="M17.7105 4.38365C18.2003 4.61565 18.6377 4.94504 18.9962 5.35029C19.5849 6.01547 19.9376 6.85686 19.9923 7.75418L19.9999 8.00013V16.0001C19.9999 18.1423 18.3159 19.8912 16.1995 19.9951L15.9999 20H3.99988C1.85774 20 0.108812 18.316 0.00488308 16.1996L0 16V8.00002C0 7.01117 0.361464 6.07592 1.00364 5.3502C1.30233 5.01245 1.656 4.72742 2.049 4.50756L2.28937 4.38354L3.14541 6.191C2.90071 6.30693 2.68141 6.47211 2.50144 6.6755C2.22005 6.99358 2.04719 7.3895 2.00841 7.81571L2.00004 8V16C2.00004 17.0544 2.81589 17.9181 3.85075 17.9946L4.00002 18H16C17.0544 18 17.9181 17.1841 17.9946 16.1493L18 16V8.00003C18 7.50421 17.8202 7.03896 17.4986 6.67553C17.3547 6.51286 17.1854 6.37461 16.9983 6.26635L16.8546 6.19101L17.7105 4.38365ZM9.99979 8.07142e-05L10.0192 0.000220221L10.0588 0.00175483C10.0705 0.00245236 10.0824 0.00342893 10.0941 0.004545L10.1164 0.00677714L10.1432 0.0104043C10.1632 0.0131945 10.1828 0.0166821 10.2025 0.0207278C10.2114 0.0225414 10.2204 0.0244946 10.2291 0.0264478L10.2608 0.0345393L10.2916 0.0434678C10.2985 0.0454209 10.3052 0.0476532 10.3119 0.0498853C10.3315 0.0561632 10.3514 0.0634178 10.3709 0.0712303C10.3886 0.0783453 10.4059 0.0857392 10.4231 0.0936913C10.4437 0.103457 10.4641 0.11392 10.484 0.124941C10.4962 0.131638 10.5084 0.138753 10.5204 0.146007C10.5256 0.149355 10.5308 0.152564 10.5359 0.155773L10.5882 0.191347C10.5965 0.197346 10.6046 0.203484 10.6127 0.209762C10.6207 0.21618 10.623 0.217993 10.6252 0.219807L10.707 0.29291L14.707 4.29291C15.0975 4.68355 15.0975 5.31662 14.707 5.70726C14.3465 6.06762 13.7792 6.09537 13.3869 5.79041L13.2926 5.70726L10.9998 3.41512V15.0001C10.9998 15.5524 10.5521 16.0001 9.9998 16.0001C9.48698 16.0001 9.06426 15.6141 9.00651 15.1167L8.99982 15.0001V3.41406L6.707 5.70717C6.31636 6.09767 5.68328 6.09767 5.29264 5.70717C4.93229 5.34667 4.90454 4.77942 5.2095 4.38713L5.29264 4.29283L9.29264 0.292832L9.37439 0.219728C9.37662 0.217915 9.37886 0.216101 9.38109 0.214288L9.29264 0.29283C9.33017 0.255441 9.36993 0.221541 9.41136 0.191266C9.43354 0.175223 9.456 0.160156 9.47916 0.146066C9.49116 0.138672 9.50343 0.131557 9.51571 0.124721C9.53552 0.11384 9.55589 0.103376 9.57667 0.093611C9.59369 0.0856588 9.61099 0.0782649 9.62843 0.0712896C9.64824 0.0633374 9.66805 0.0560832 9.688 0.049526C9.69442 0.0475729 9.70111 0.0453407 9.70795 0.0433875L9.73906 0.0343193C9.74938 0.031529 9.75999 0.0288785 9.77045 0.0263671L9.7971 0.0206471C9.81677 0.0166014 9.83644 0.0131136 9.85639 0.0103236C9.8649 0.0089285 9.87411 0.00781243 9.88318 0.00669643L9.9055 0.00446429C9.91722 0.00334822 9.92907 0.00237165 9.94079 0.00167411L9.98069 0.000139507C9.98697 0 9.99339 0 9.9998 0L9.99979 8.07142e-05Z" fill="#A8A8A8"/>
</svg>
