<svg width="32" height="32" viewBox="0 0 32 32" fill="none" xmlns="http://www.w3.org/2000/svg">
<path d="M15.9895 0C7.16536 0 0 7.18294 0 16.0087C0.00246411 20.2493 1.6879 24.3155 4.68602 27.314C7.68414 30.3124 11.7497 31.9978 15.9895 32C24.8137 32 32 24.8333 32 16.0052C32 7.17712 24.8137 0 15.9895 0ZM20.8986 20.9024C19.9302 21.8752 18.6947 22.5386 17.3489 22.8083C16.0031 23.078 14.6075 22.942 13.3391 22.4174C12.0707 21.8929 10.9865 21.0035 10.2241 19.8619C9.46173 18.7203 9.05541 17.378 9.05667 16.0052H22.9387C22.9404 16.916 22.7609 17.8181 22.4107 18.6589C22.0604 19.4996 21.5464 20.2623 20.8986 20.9024Z" fill="#A8A8A8"/>
</svg>
